[center][img]http://img856.imageshack.us/img856/3605/coverqkj.jpg[/img][/center]

[center][code]===================================================
         Wall.e Release Group Releases
===================================================



General
Complete name                            : Nautanki Saala (2013) - 720p - 5.1 - DVDRip - Kishan(Wall.e).mp4
Format                                   : MPEG-4
File size                                : 1.46 GiB
Duration                                 : 2h 28mn
Overall bit rate                         : 1 408 Kbps

Video
ID                                       : 1
Format                                   : AVC
Format/Info                              : Advanced Video Codec
Format profile                           : Main@L3.1
Format settings, CABAC                   : Yes
Format settings, ReFrames                : 4 frames
Codec ID                                 : avc1
Codec ID/Info                            : Advanced Video Coding
Duration                                 : 2h 28mn
Bit rate mode                            : Variable
Bit rate                                 : 950 Kbps
Width                                    : 1 280 pixels
Height                                   : 544 pixels
Display aspect ratio                     : 2.35:1
Frame rate mode                          : Variable
Frame rate                               : 23.976 fps
Minimum frame rate                       : 23.810 fps
Maximum frame rate                       : 24.390 fps
Color space                              : YUV
Chroma subsampling                       : 4:2:0
Bit depth                                : 8 bits
Scan type                                : Progressive
Bits/(Pixel*Frame)                       : 0.057
Stream size                              : 1 014 MiB (68%)
Writing library                          : x264 core 120

Audio
ID                                       : 2
Format                                   : AC-3
Format/Info                              : Audio Coding 3
Mode extension                           : CM (complete main)
Format settings, Endianness              : Big
Codec ID                                 : ac-3
Duration                                 : 2h 28mn
Bit rate mode                            : Constant
Bit rate                                 : 448 Kbps
Channel(s)                               : 6 channels
Channel positions                        : Front: L C R, Side: L R, LFE
Sampling rate                            : 48.0 KHz
Bit depth                                : 16 bits
Compression mode                         : Lossy
Delay relative to video                  : 83ms
Stream size                              : 475 MiB (32%)
Language                                 : Hindi


[/code][/center]




[center]Ripper Note
ADDED BEHIND THE SCENES[/center]






Here For Sample[/url]
[/center]




[center]Thanks to Team DDR for source[/center]